<svg xmlns="http://www.w3.org/2000/svg" version="1.1" xmlns:xlink="http://www.w3.org/1999/xlink" width="1000" height="1000"><g clip-path="url(#SvgjsClipPath1044)"><rect width="1000" height="1000" fill="#ffffff"></rect><g transform="matrix(29.166666666666668,0,0,29.166666666666668,150,150)"><svg xmlns="http://www.w3.org/2000/svg" version="1.1" xmlns:xlink="http://www.w3.org/1999/xlink" width="24" height="24"><svg xmlns="http://www.w3.org/2000/svg" width="24" height="24" viewBox="0 0 24 24" fill="none" stroke="currentColor" stroke-width="2" stroke-linecap="round" stroke-linejoin="round" class="lucide lucide-microscope-icon lucide-microscope"><path d="M6 18h8"></path><path d="M3 22h18"></path><path d="M14 22a7 7 0 1 0 0-14h-1"></path><path d="M9 14h2"></path><path d="M9 12a2 2 0 0 1-2-2V6h6v4a2 2 0 0 1-2 2Z"></path><path d="M12 6V3a1 1 0 0 0-1-1H9a1 1 0 0 0-1 1v3"></path></svg></svg></g></g><defs><clipPath id="SvgjsClipPath1044"><rect width="1000" height="1000" x="0" y="0" rx="300" ry="300"></rect></clipPath></defs></svg>